<?xml version="1.0" standalone="no"?>
<!DOCTYPE svg PUBLIC "-//W3C//DTD SVG 20010904//EN"
 "http://www.w3.org/TR/2001/REC-SVG-20010904/DTD/svg10.dtd">
<svg version="1.0" xmlns="http://www.w3.org/2000/svg"
 width="32.000000pt" height="32.000000pt" viewBox="0 0 32.000000 32.000000"
 preserveAspectRatio="xMidYMid meet">

<g transform="translate(0.000000,32.000000) scale(0.100000,-0.100000)"
fill="#000000" stroke="none">
<path d="M90 298 c-33 -17 -51 -35 -67 -68 -29 -56 -29 -84 -1 -140 25 -48 89
-90 138 -90 49 0 113 42 138 90 28 56 28 84 0 140 -25 48 -89 90 -138 90 -14
0 -46 -10 -70 -22z m108 -66 c3 -18 6 -20 22 -9 15 9 22 9 31 0 16 -16 -5 -43
-33 -43 -15 0 -17 -3 -8 -19 22 -43 -5 -75 -29 -33 -7 11 -10 13 -11 3 0 -9
-7 -11 -21 -8 -30 8 -51 -2 -44 -23 6 -18 -19 -47 -29 -32 -3 5 -8 38 -12 74
-6 64 -6 65 20 70 14 3 35 -1 46 -9 11 -8 20 -10 20 -4 0 5 5 22 10 36 12 30
33 29 38 -3z"/>
<path d="M82 164 c2 -16 7 -19 25 -16 27 5 32 22 6 18 -10 -2 -21 2 -25 8 -4
6 -6 1 -6 -10z"/>
</g>
</svg>
