<svg version="1.1" id="Layer_1" xmlns="http://www.w3.org/2000/svg" xmlns:xlink="http://www.w3.org/1999/xlink" x="0px" y="0px"
	 width="100%" viewBox="0 0 50 50" enable-background="new 0 0 50 50" xml:space="preserve">
<path fill="#D32E36" opacity="1.000000" stroke="none" 
	d="
M31.000000,51.000000 
	C27.307091,51.000000 23.614182,51.000000 19.340778,50.668537 
	C16.741148,49.230671 14.339767,48.506504 12.777018,46.943722 
	C8.656932,42.823559 4.900958,38.339287 1.000000,34.000000 
	C1.000000,28.977907 1.000000,23.955816 1.330763,18.340710 
	C4.475911,9.597665 10.792567,4.864327 18.000000,1.000000 
	C22.689257,1.000000 27.378511,1.000000 32.638390,1.342180 
	C40.998650,4.616212 46.705643,9.591667 49.226219,17.794350 
	C49.390068,18.327570 50.389339,18.604078 51.000000,19.000000 
	C51.000000,22.692909 51.000000,26.385818 50.668846,30.680477 
	C47.139336,40.408855 41.564072,47.169598 31.895935,49.905624 
	C31.523855,50.010918 31.295389,50.623699 31.000000,51.000000 
M38.249855,14.822678 
	C36.503372,15.554505 34.756893,16.286331 32.409431,16.885265 
	C32.000381,16.852976 31.591330,16.820686 31.033169,16.043510 
	C30.099539,14.279027 29.165909,12.514544 28.232279,10.750059 
	C27.383556,12.259497 26.534834,13.768933 25.194025,15.765656 
	C24.895525,16.851494 24.597025,17.937332 24.042818,19.454666 
	C24.014572,19.619453 23.986328,19.784241 23.426506,20.154060 
	C23.248421,20.220034 23.070333,20.286009 22.505360,19.722576 
	C21.732655,19.118004 21.049217,18.276373 20.173088,17.946451 
	C13.310460,15.362224 9.750873,18.081198 10.421704,25.277809 
	C10.774060,29.057850 10.872439,32.875271 11.487989,36.609463 
	C11.696909,37.876865 13.139580,38.940895 14.018470,40.097858 
	C14.911028,38.984379 16.620716,37.821449 16.556841,36.765846 
	C16.255987,31.793842 18.939960,30.401123 23.272869,30.569666 
	C23.272869,30.569666 23.441700,30.504047 24.084099,31.118805 
	C25.407236,30.686432 26.730375,30.254059 28.053513,29.821686 
	C27.959318,30.145830 27.865124,30.469976 27.770927,30.794121 
	C29.812321,31.396984 31.853714,31.999846 33.895107,32.602707 
	C33.712486,30.416515 33.633453,28.213812 33.289055,26.053410 
	C33.174068,25.332085 32.380405,24.718952 32.008938,23.484909 
	C32.132412,23.118719 32.255882,22.752529 33.126812,22.342356 
	C35.306526,21.400049 37.486237,20.457741 40.178341,19.152040 
	C39.778179,17.782787 39.378017,16.413534 38.249855,14.822678 
z"/>
<path fill="#FCF2F3" opacity="1.000000" stroke="none" 
	d="
M31.469044,51.000000 
	C31.295389,50.623699 31.523855,50.010918 31.895935,49.905624 
	C41.564072,47.169598 47.139336,40.408855 50.668846,31.141113 
	C51.000000,37.592728 51.000000,44.185455 51.000000,51.000000 
	C44.647739,51.000000 38.292912,51.000000 31.469044,51.000000 
z"/>
<path fill="#FDF3F4" opacity="1.000000" stroke="none" 
	d="
M51.000000,18.530293 
	C50.389339,18.604078 49.390068,18.327570 49.226219,17.794350 
	C46.705643,9.591667 40.998650,4.616212 33.104507,1.342180 
	C38.925732,1.000000 44.851467,1.000000 51.000000,1.000000 
	C51.000000,6.684937 51.000000,12.372760 51.000000,18.530293 
z"/>
<path fill="#FDF4F4" opacity="1.000000" stroke="none" 
	d="
M1.000000,34.470451 
	C4.900958,38.339287 8.656932,42.823559 12.777018,46.943722 
	C14.339767,48.506504 16.741148,49.230671 18.880142,50.668537 
	C13.076679,51.000000 7.153358,51.000000 1.000000,51.000000 
	C1.000000,45.649143 1.000000,40.295025 1.000000,34.470451 
z"/>
<path fill="#FDF5F5" opacity="1.000000" stroke="none" 
	d="
M17.529547,1.000000 
	C10.792567,4.864327 4.475911,9.597665 1.330763,17.873848 
	C1.000000,12.407914 1.000000,6.815828 1.000000,1.000000 
	C6.350975,1.000000 11.705034,1.000000 17.529547,1.000000 
z"/>
<path fill="#F8DEDF" opacity="1.000000" stroke="none" 
	d="
M23.182775,30.414688 
	C18.939960,30.401123 16.255987,31.793842 16.556841,36.765846 
	C16.620716,37.821449 14.911028,38.984379 14.018471,40.097858 
	C13.139580,38.940895 11.696909,37.876865 11.487989,36.609463 
	C10.872439,32.875271 10.774060,29.057850 10.421704,25.277809 
	C9.750873,18.081198 13.310460,15.362224 20.173088,17.946451 
	C21.049217,18.276373 21.732655,19.118004 22.828716,20.284241 
	C23.449141,21.069572 23.746206,21.293238 24.048527,21.726076 
	C24.047604,22.214890 24.018272,22.492085 23.993258,23.198561 
	C24.006535,24.770594 23.992342,25.910892 23.981800,27.020254 
	C23.985451,26.989315 24.031303,26.947130 23.808607,27.243483 
	C23.451532,28.498119 23.317154,29.456404 23.182775,30.414688 
M19.102640,25.917894 
	C19.009478,24.707350 19.370144,22.955650 18.719429,22.409941 
	C17.678688,21.537146 15.966722,21.464737 14.538508,21.053974 
	C13.968540,23.441210 13.398572,25.828445 12.545101,29.403097 
	C15.589714,27.679617 17.004286,26.878862 19.102640,25.917894 
z"/>
<path fill="#FBEAEB" opacity="1.000000" stroke="none" 
	d="
M23.965788,22.766829 
	C24.018272,22.492085 24.047604,22.214890 24.069054,21.331211 
	C24.042248,20.467793 24.000166,20.208412 23.958082,19.949030 
	C23.986328,19.784241 24.014572,19.619453 24.470886,19.046619 
	C25.161341,17.518507 25.423725,16.398438 25.686111,15.278371 
	C26.534834,13.768933 27.383556,12.259497 28.232277,10.750059 
	C29.165909,12.514544 30.099539,14.279027 30.951817,16.746906 
	C29.697525,19.051048 28.524586,20.651793 27.351645,22.252535 
	C28.866756,22.853811 30.381868,23.455088 31.896980,24.056362 
	C32.380405,24.718952 33.174068,25.332085 33.289055,26.053410 
	C33.633453,28.213812 33.712486,30.416515 33.895107,32.602707 
	C31.853714,31.999846 29.812321,31.396984 27.770927,30.794121 
	C27.865124,30.469976 27.959318,30.145830 28.053513,29.821686 
	C26.730375,30.254059 25.407236,30.686432 23.934307,30.388103 
	C23.866777,28.753979 23.949041,27.850555 24.031303,26.947130 
	C24.031303,26.947130 23.985451,26.989315 24.300234,26.929907 
	C24.398607,25.502609 24.182198,24.134718 23.965788,22.766829 
z"/>
<path fill="#FBEAEB" opacity="1.000000" stroke="none" 
	d="
M39.665951,19.515434 
	C37.486237,20.457741 35.306526,21.400049 32.559341,22.108999 
	C32.331387,20.256481 32.670898,18.637321 33.010410,17.018160 
	C34.756893,16.286331 36.503372,15.554505 38.654778,15.387238 
	C39.261784,17.139677 39.463867,18.327555 39.665951,19.515434 
z"/>
<path fill="#EFB4B7" opacity="1.000000" stroke="none" 
	d="
M32.709923,16.951714 
	C32.670898,18.637321 32.331387,20.256481 32.185612,22.130991 
	C32.255882,22.752529 32.132412,23.118719 31.952959,23.770638 
	C30.381868,23.455088 28.866756,22.853811 27.351645,22.252535 
	C28.524586,20.651793 29.697525,19.051048 31.026371,17.119350 
	C31.591330,16.820686 32.000381,16.852976 32.709923,16.951714 
z"/>
<path fill="#EFB4B7" opacity="1.000000" stroke="none" 
	d="
M39.922146,19.333736 
	C39.463867,18.327555 39.261784,17.139677 39.018776,15.498040 
	C39.378017,16.413534 39.778179,17.782787 39.922146,19.333736 
z"/>
<path fill="#F8DEDF" opacity="1.000000" stroke="none" 
	d="
M25.440067,15.522013 
	C25.423725,16.398438 25.161341,17.518507 24.598740,18.830872 
	C24.597025,17.937332 24.895525,16.851494 25.440067,15.522013 
z"/>
<path fill="#EDA8AB" opacity="1.000000" stroke="none" 
	d="
M23.808609,27.243483 
	C23.949041,27.850555 23.866777,28.753979 23.613106,30.080727 
	C23.441700,30.504047 23.272869,30.569666 23.227821,30.492176 
	C23.317154,29.456404 23.451532,28.498119 23.808609,27.243483 
z"/>
<path fill="#EDA8AB" opacity="1.000000" stroke="none" 
	d="
M23.692295,20.051544 
	C24.000166,20.208412 24.042248,20.467793 24.063801,21.122040 
	C23.746206,21.293238 23.449141,21.069572 23.022160,20.598946 
	C23.070333,20.286009 23.248421,20.220034 23.692295,20.051544 
z"/>
<path fill="#E2787D" opacity="1.000000" stroke="none" 
	d="
M18.760748,25.998001 
	C17.004286,26.878862 15.589714,27.679617 12.545101,29.403097 
	C13.398572,25.828445 13.968540,23.441210 14.538507,21.053974 
	C15.966722,21.464737 17.678688,21.537146 18.719429,22.409941 
	C19.370144,22.955650 19.009478,24.707350 18.760748,25.998001 
z"/>
<path fill="#EDA8AB" opacity="1.000000" stroke="none" 
	d="
M23.993258,23.198561 
	C24.182198,24.134718 24.398607,25.502609 24.296583,26.960846 
	C23.992342,25.910892 24.006535,24.770594 23.993258,23.198561 
z"/>
</svg>